<svg
    xmlns="http://www.w3.org/2000/svg"
    xmlnsXlink="http://www.w3.org/1999/xlink"
    zoomAndPan="magnify"
    viewBox="0 0 375 374.999991"
    preserveAspectRatio="xMidYMid meet"
    {...props}
  >
    <defs>
      <clipPath id="14b673599b">
        <path
          d="M 52.515625 52.394531 L 101.507812 52.394531 L 101.507812 322.605469 L 52.515625 322.605469 Z M 52.515625 52.394531 "
          clipRule="nonzero"
        />
      </clipPath>
      <clipPath id="e60d6527b8">
        <path
          d="M 0.515625 0.394531 L 49.507812 0.394531 L 49.507812 270.605469 L 0.515625 270.605469 Z M 0.515625 0.394531 "
          clipRule="nonzero"
        />
      </clipPath>
      <clipPath id="f5e4f04750">
        <rect x={0} width={50} y={0} height={271} />
      </clipPath>
      <clipPath id="85f9717e0d">
        <path
          d="M 52.515625 273.984375 L 322.480469 273.984375 L 322.480469 322.605469 L 52.515625 322.605469 Z M 52.515625 273.984375 "
          clipRule="nonzero"
        />
      </clipPath>
      <clipPath id="3c7697888f">
        <path
          d="M 0.515625 0.984375 L 270.480469 0.984375 L 270.480469 49.605469 L 0.515625 49.605469 Z M 0.515625 0.984375 "
          clipRule="nonzero"
        />
      </clipPath>
      <clipPath id="273683ac4e">
        <rect x={0} width={271} y={0} height={50} />
      </clipPath>
      <clipPath id="44b47ae52c">
        <path
          d="M 273.859375 52.394531 L 322.484375 52.394531 L 322.484375 322.605469 L 273.859375 322.605469 Z M 273.859375 52.394531 "
          clipRule="nonzero"
        />
      </clipPath>
      <clipPath id="c7c276b319">
        <path
          d="M 0.859375 0.394531 L 49.484375 0.394531 L 49.484375 270.605469 L 0.859375 270.605469 Z M 0.859375 0.394531 "
          clipRule="nonzero"
        />
      </clipPath>
      <clipPath id="a1ed992175">
        <rect x={0} width={50} y={0} height={271} />
      </clipPath>
      <clipPath id="8546146a11">
        <path
          d="M 154.058594 52.390625 L 322.476562 52.390625 L 322.476562 101.011719 L 154.058594 101.011719 Z M 154.058594 52.390625 "
          clipRule="nonzero"
        />
      </clipPath>
      <clipPath id="31b9d0c58c">
        <path
          d="M 0.0585938 0.390625 L 168.476562 0.390625 L 168.476562 49.011719 L 0.0585938 49.011719 Z M 0.0585938 0.390625 "
          clipRule="nonzero"
        />
      </clipPath>
      <clipPath id="deb33a552f">
        <rect x={0} width={169} y={0} height={50} />
      </clipPath>
    </defs>
    <g clipPath="url(#14b673599b)">
      <g transform="matrix(1, 0, 0, 1, 52, 52)">
        <g clipPath="url(#f5e4f04750)">
          <g clipPath="url(#e60d6527b8)">
            <path
              fill="#ffb400"
              d="M 0.515625 0.394531 L 49.507812 0.394531 L 49.507812 270.605469 L 0.515625 270.605469 Z M 0.515625 0.394531 "
              fillOpacity={1}
              fillRule="nonzero"
            />
          </g>
        </g>
      </g>
    </g>
    <g clipPath="url(#85f9717e0d)">
      <g transform="matrix(1, 0, 0, 1, 52, 273)">
        <g clipPath="url(#273683ac4e)">
          <g clipPath="url(#3c7697888f)">
            <path
              fill="#ffb400"
              d="M 270.480469 0.984375 L 270.480469 49.605469 L 0.589844 49.605469 L 0.589844 0.984375 Z M 270.480469 0.984375 "
              fillOpacity={1}
              fillRule="nonzero"
            />
          </g>
        </g>
      </g>
    </g>
    <g clipPath="url(#44b47ae52c)">
      <g transform="matrix(1, 0, 0, 1, 273, 52)">
        <g clipPath="url(#a1ed992175)">
          <g clipPath="url(#c7c276b319)">
            <path
              fill="#ffb400"
              d="M 0.859375 0.394531 L 49.484375 0.394531 L 49.484375 270.664062 L 0.859375 270.664062 Z M 0.859375 0.394531 "
              fillOpacity={1}
              fillRule="nonzero"
            />
          </g>
        </g>
      </g>
    </g>
    <g clipPath="url(#8546146a11)">
      <g transform="matrix(1, 0, 0, 1, 154, 52)">
        <g clipPath="url(#deb33a552f)">
          <g clipPath="url(#31b9d0c58c)">
            <path
              fill="#ffb400"
              d="M 168.476562 0.390625 L 168.476562 49.011719 L 0.0078125 49.011719 L 0.0078125 0.390625 Z M 168.476562 0.390625 "
              fillOpacity={1}
              fillRule="nonzero"
            />
          </g>
        </g>
      </g>
    </g>
  </svg>